<svg width="79" height="79" viewBox="0 0 79 79" fill="none" xmlns="http://www.w3.org/2000/svg">
<path d="M14.2794 28.5588C22.153 28.5588 28.5588 22.153 28.5588 14.2794C28.5588 6.40579 22.153 0 14.2794 0C6.40579 0 0 6.40579 0 14.2794C0 22.153 6.40579 28.5588 14.2794 28.5588ZM14.2794 3.08594C20.4514 3.08594 25.4729 8.10738 25.4729 14.2794C25.4729 20.4514 20.4514 25.4729 14.2794 25.4729C8.10738 25.4729 3.08594 20.4514 3.08594 14.2794C3.08594 8.10738 8.10738 3.08594 14.2794 3.08594Z" fill="#3CC3AE"/>
<path d="M15.5071 17.671C15.8083 17.9711 16.2024 18.1211 16.5965 18.1211C16.9921 18.1211 17.388 17.9699 17.6894 17.6675C18.2908 17.0638 18.2893 16.0868 17.6858 15.4852L15.833 13.6386V6.78906C15.833 5.93704 15.1421 5.24609 14.29 5.24609C13.438 5.24609 12.7471 5.93704 12.7471 6.78906V14.2794C12.7471 14.6895 12.9105 15.0828 13.2007 15.3723L15.5071 17.671Z" fill="#3CC3AE"/>
<path d="M77.457 51.2265H67.9605C66.6552 49.3697 64.6937 48.0545 62.4566 47.5654L55.6731 46.0821C58.449 44.2099 60.2784 41.0363 60.2784 37.4433V33.6759V31.9328V31.5406C60.2784 25.7989 55.6072 21.1277 49.8655 21.1277C44.1238 21.1277 39.4526 25.7989 39.4526 31.5406V31.9328V33.6759V37.4433C39.4526 41.0317 41.2772 44.202 44.0473 46.0752L37.2681 47.5624C36.9785 47.626 36.6938 47.7039 36.4141 47.7942V35.0254C36.4141 34.1733 35.7231 33.4824 34.8711 33.4824H24.3789C23.5269 33.4824 22.8359 34.1733 22.8359 35.0254C22.8359 35.8774 23.5269 36.5683 24.3789 36.5683H33.3281V58.1699H22.8359V50.455C22.8359 47.9027 20.7594 45.8261 18.207 45.8261C15.6547 45.8261 13.5781 47.9027 13.5781 50.455V58.1699H3.08594V36.5683H12.0352C12.8872 36.5683 13.5781 35.8774 13.5781 35.0254C13.5781 34.1733 12.8872 33.4824 12.0352 33.4824H1.54297C0.690941 33.4824 0 34.1733 0 35.0254V59.7129C0 60.5649 0.690941 61.2558 1.54297 61.2558H13.5781V64.1875H13.4238C10.7863 64.1875 8.64062 66.3331 8.64062 68.9707V69.7422H1.54297C0.690941 69.7422 0 70.4331 0 71.2851V77.457C0 78.309 0.690941 79 1.54297 79H77.457C78.3091 79 79 78.309 79 77.457V71.2851V65.1133V58.9414V52.7695C79 51.9175 78.3091 51.2265 77.457 51.2265ZM68.0725 69.7422H59.25V66.6562H75.9141V69.7422H68.0725ZM75.9141 63.5703H59.25V60.4843H75.9141V63.5703ZM75.9141 57.3984H59.25V54.3125H67.0997C67.1043 54.3125 67.109 54.3134 67.1134 54.3134C67.1182 54.3134 67.1232 54.3125 67.1279 54.3125H75.9141V57.3984ZM42.5384 31.5407C42.5384 27.5006 45.8254 24.2138 49.8654 24.2138C53.7124 24.2138 56.8764 27.1939 57.1701 30.9669L53.5833 28.8597C52.9335 28.4778 52.1031 28.6214 51.6191 29.199C50.0567 31.0636 47.7652 32.1332 45.3324 32.1332H42.5386V31.9331V31.5407H42.5384ZM42.5384 35.219H45.3324C48.2371 35.219 50.9951 34.1113 53.0789 32.1423L57.1925 34.5591V37.4435C57.1925 41.4836 53.9055 44.7704 49.8655 44.7704C45.8256 44.7704 42.5386 41.4835 42.5386 37.4435V35.219H42.5384ZM52.2826 47.5702L49.8424 54.096L47.3977 47.5584C48.1892 47.7516 49.0152 47.8564 49.8654 47.8564C50.6976 47.8564 51.5063 47.7555 52.2826 47.5702ZM34.8711 61.2558C35.7231 61.2558 36.4141 60.5649 36.4141 59.7129V51.1304C36.8901 50.8795 37.3976 50.6934 37.9293 50.5768L44.6782 49.0962L48.3972 59.0417C48.6226 59.6445 49.1986 60.0441 49.8424 60.0441C50.4861 60.0441 51.0621 59.6445 51.2875 59.0415L55.0067 49.0954L61.7974 50.5802C62.3935 50.7104 62.9591 50.9311 63.4796 51.2264H57.707C56.855 51.2264 56.1641 51.9173 56.1641 52.7693V58.9412V65.1131V69.742H33.2014V61.2557H34.8711V61.2558ZM30.1155 61.2558V69.7422H27.7734V68.9707C27.7734 66.3331 25.6278 64.1875 22.9902 64.1875H22.8359V61.2558H30.1155ZM16.6641 50.455C16.6641 49.6043 17.3562 48.9121 18.207 48.9121C19.0578 48.9121 19.75 49.6043 19.75 50.455V64.1875H16.6641V50.455ZM11.7266 68.9707C11.7266 68.0349 12.488 67.2734 13.4238 67.2734H15.1211H21.293H22.9902C23.926 67.2734 24.6875 68.0349 24.6875 68.9707V69.7422H11.7266V68.9707ZM75.9141 75.914H3.08594V72.8281H75.9141V75.914Z" fill="#3CC3AE"/>
<path d="M17.1162 33.9345C16.8292 34.2215 16.6641 34.6196 16.6641 35.0254C16.6641 35.4312 16.829 35.8293 17.1162 36.1161C17.4031 36.4031 17.8012 36.5684 18.207 36.5684C18.6128 36.5684 19.0109 36.4033 19.2978 36.1161C19.5849 35.8293 19.75 35.4312 19.75 35.0254C19.75 34.6196 19.5849 34.2215 19.2978 33.9345C19.0109 33.6475 18.6128 33.4824 18.207 33.4824C17.8012 33.4824 17.4031 33.6474 17.1162 33.9345Z" fill="#3CC3AE"/>
</svg>
