<svg width="78" height="78" viewBox="0 0 78 78" fill="none" xmlns="http://www.w3.org/2000/svg">
<g clip-path="url(#clip0)">
<path d="M68.3649 34.3773C69.0016 34.3773 69.5187 33.8602 69.5187 33.2228V15.1177C69.5187 13.6544 68.328 12.4636 66.864 12.4636H62.3372V8.88712C62.3372 7.422 61.1476 6.23241 59.6824 6.23241H55.0074V2.65471C55.0074 1.19138 53.816 0 52.3527 0H20.4932C19.8559 0 19.3387 0.517136 19.3387 1.15389C19.3387 1.79123 19.8559 2.30836 20.4932 2.30836H52.3527C52.5431 2.30836 52.699 2.46368 52.699 2.65471V62.8823C52.699 63.0727 52.5431 63.228 52.3527 63.228C49.4885 63.228 12.6558 63.228 11.186 63.228C10.9949 63.228 10.8396 63.0727 10.8396 62.8823V2.65471C10.8396 2.46368 10.9949 2.30836 11.186 2.30836H15.8765C16.5132 2.30836 17.0304 1.79123 17.0304 1.15389C17.0304 0.517136 16.5132 0 15.8765 0H11.186C9.72263 0 8.53125 1.19138 8.53125 2.65471V62.8823C8.53125 64.3456 9.72263 65.5364 11.186 65.5364H15.8628V69.1129C15.8628 70.578 17.0518 71.7676 18.5157 71.7676H23.0432V75.3453C23.0432 76.8086 24.234 78 25.6973 78H66.864C68.328 78 69.5187 76.8086 69.5187 75.3453V37.8396C69.5187 37.2028 69.0016 36.6857 68.3649 36.6857C67.7263 36.6857 67.2104 37.2028 67.2104 37.8396V75.3453C67.2104 75.5363 67.0551 75.6916 66.864 75.6916H25.6973C25.5069 75.6916 25.3515 75.5363 25.3515 75.3453V71.7676H59.6824C61.1476 71.7676 62.3372 70.578 62.3372 69.1129V53.1513C62.3372 52.5146 61.8212 51.9974 61.1827 51.9974C60.5453 51.9974 60.0288 52.5146 60.0288 53.1513V69.1129C60.0288 69.3039 59.8747 69.4592 59.6824 69.4592C58.5845 69.4592 19.6256 69.4592 18.5157 69.4592C18.3247 69.4592 18.1706 69.3039 18.1706 69.1129V65.5364H52.3527C53.816 65.5364 55.0074 64.3456 55.0074 62.8823C55.0074 61.197 55.0074 11.2086 55.0074 8.54077H59.6824C59.8747 8.54077 60.0288 8.69609 60.0288 8.88712V14.772V48.5352C60.0288 49.1737 60.5453 49.6891 61.1827 49.6891C61.8212 49.6891 62.3372 49.1737 62.3372 48.5352V14.772H66.864C67.0551 14.772 67.2104 14.9273 67.2104 15.1177V33.2228C67.2104 33.8602 67.7263 34.3773 68.3649 34.3773Z" fill="#3CC3AE"/>
<path d="M38.2815 11.4258C38.2815 7.83501 35.3602 4.9137 31.7694 4.9137C28.1786 4.9137 25.2573 7.83501 25.2573 11.4258C25.2573 15.0166 28.1786 17.9373 31.7694 17.9373C35.3602 17.9373 38.2815 15.0166 38.2815 11.4258ZM27.5657 11.4258C27.5657 9.10732 29.4515 7.22206 31.7694 7.22206C34.0873 7.22206 35.9732 9.10791 35.9732 11.4258C35.9732 13.7437 34.0873 15.6295 31.7694 15.6295C29.4515 15.6295 27.5657 13.7437 27.5657 11.4258Z" fill="#3CC3AE"/>
<path d="M47.5183 12.5797C48.1562 12.5797 48.6728 12.0631 48.6728 11.4258C48.6728 10.7878 48.1562 10.2713 47.5183 10.2713H42.1065C41.4692 10.2713 40.9526 10.7878 40.9526 11.4258C40.9526 12.0631 41.4692 12.5797 42.1065 12.5797H47.5183Z" fill="#3CC3AE"/>
<path d="M21.433 10.2713H16.0212C15.3838 10.2713 14.8667 10.7878 14.8667 11.4258C14.8667 12.0631 15.3838 12.5797 16.0212 12.5797H21.433C22.0703 12.5797 22.5868 12.0631 22.5868 11.4258C22.5868 10.7878 22.0703 10.2713 21.433 10.2713Z" fill="#3CC3AE"/>
<path d="M17.5352 22.3802C17.5352 23.0176 18.0517 23.5341 18.689 23.5341H44.8505C45.4879 23.5341 46.0044 23.0176 46.0044 22.3802C46.0044 21.7423 45.4879 21.2258 44.8505 21.2258H18.689C18.0517 21.2258 17.5352 21.7423 17.5352 22.3802Z" fill="#3CC3AE"/>
<path d="M44.8499 26.8226H18.689C18.0517 26.8226 17.5352 27.3392 17.5352 27.9765C17.5352 28.6139 18.0517 29.1304 18.689 29.1304H44.8499C45.4879 29.1304 46.0044 28.6139 46.0044 27.9765C46.0044 27.3392 45.4879 26.8226 44.8499 26.8226Z" fill="#3CC3AE"/>
<path d="M44.8499 32.4188H18.689C18.0517 32.4188 17.5352 32.9354 17.5352 33.5727C17.5352 34.2106 18.0517 34.7272 18.689 34.7272H44.8499C45.4879 34.7272 46.0044 34.2106 46.0044 33.5727C46.0044 32.9354 45.4879 32.4188 44.8499 32.4188Z" fill="#3CC3AE"/>
<path d="M44.8499 38.0151H18.689C18.0517 38.0151 17.5352 38.5317 17.5352 39.1696C17.5352 39.807 18.0517 40.3235 18.689 40.3235H44.8499C45.4879 40.3235 46.0044 39.807 46.0044 39.1696C46.0044 38.5317 45.4879 38.0151 44.8499 38.0151Z" fill="#3CC3AE"/>
<path d="M44.8499 43.6119H18.689C18.0517 43.6119 17.5352 44.1285 17.5352 44.7664C17.5352 45.4038 18.0517 45.9203 18.689 45.9203H44.8499C45.4879 45.9203 46.0044 45.4038 46.0044 44.7664C46.0044 44.1285 45.4879 43.6119 44.8499 43.6119Z" fill="#3CC3AE"/>
<path d="M45.3507 49.4701C44.8574 49.066 44.1308 49.138 43.7261 49.6308L38.2167 56.35L35.6626 53.847C35.2074 53.4013 34.4766 53.4084 34.0303 53.8637C33.5846 54.3189 33.5917 55.0497 34.0469 55.4954L36.907 58.2989C37.7103 59.0862 39.0154 59.0154 39.7295 58.1454L45.5114 51.0947C45.9155 50.602 45.8435 49.8742 45.3507 49.4701Z" fill="#3CC3AE"/>
</g>
<defs>
<clipPath id="clip0">
<rect width="78" height="78" fill="white"/>
</clipPath>
</defs>
</svg>
