<svg width="73" height="73" viewBox="0 0 73 73" fill="none" xmlns="http://www.w3.org/2000/svg">
<path d="M71.7832 0H17.0333C16.3614 0 15.8167 0.544761 15.8167 1.21666V19.4666H18.25V2.43333H70.5666V69.3498C70.5783 69.9897 70.0846 70.5256 69.446 70.5665C69.3414 70.5665 69.2367 70.558 69.1321 70.5556C68.9168 70.5495 68.7014 70.5446 68.4897 70.5227C68.4715 70.5227 68.4544 70.5227 68.4362 70.5154C64.4626 70.0811 61.3237 66.9453 60.8856 62.9721C60.8856 62.9551 60.8795 62.9368 60.877 62.9198C60.8475 62.6307 60.8329 62.3403 60.8332 62.0499V59.6165C60.8332 58.9446 60.2885 58.3999 59.6166 58.3999H18.25V36.4999H15.8167V58.3999H6.08336C5.41146 58.3999 4.8667 58.9446 4.8667 59.6165V62.0499C4.87339 68.0946 9.77198 72.9931 15.8167 72.9998H69.4715C71.4459 72.9481 73.0151 71.3248 72.9999 69.3498V1.21666C72.9999 0.544761 72.4551 0 71.7832 0ZM15.8167 70.5665C11.1153 70.5612 7.30535 66.7512 7.30003 62.0499V60.8332H58.3999V62.0499C58.4016 62.4511 58.4247 62.8519 58.4693 63.2507C58.4802 63.3566 58.5009 63.4588 58.5155 63.5634C58.5556 63.8578 58.6043 64.151 58.6688 64.4394C58.6907 64.5404 58.7187 64.6401 58.7442 64.7411C58.8184 65.0343 58.9024 65.3227 58.9997 65.6074C59.0277 65.6889 59.0569 65.7692 59.0873 65.8507C59.198 66.1525 59.3234 66.4469 59.4608 66.7377C59.49 66.7973 59.5168 66.8593 59.546 66.9141C59.6986 67.2224 59.866 67.522 60.0485 67.8132C60.0728 67.8521 60.0947 67.8923 60.1191 67.9349C60.3174 68.2456 60.5315 68.5461 60.7602 68.8352L60.7992 68.8875C61.0647 69.221 61.3491 69.539 61.6508 69.8402C61.9129 70.0998 62.1845 70.3431 62.466 70.5702L15.8167 70.5665Z" fill="#3CC3AE"/>
<path d="M40.1499 34.0665C40.4726 34.0665 40.782 33.9382 41.0101 33.7101L45.8768 28.8434C46.3517 28.3683 46.3517 27.5981 45.8768 27.123L41.0101 22.2564C40.782 22.0283 40.4726 21.8999 40.1499 21.8999H6.08332C2.72365 21.8999 0 24.6236 0 27.9832C0 31.3429 2.72365 34.0665 6.08332 34.0665H40.1499ZM39.836 24.523L43.2962 27.9832L39.836 31.4434L38.971 27.9832L39.836 24.523ZM9.73331 24.3332H37.3759L36.7676 26.7666H12.1666V29.1999H36.7676L37.3759 31.6332H9.73331V24.3332ZM2.43333 27.9832C2.43333 25.9674 4.06746 24.3332 6.08332 24.3332H7.29998V31.6332H6.08332C4.06746 31.6332 2.43333 29.9991 2.43333 27.9832Z" fill="#3CC3AE"/>
<path d="M27.9835 52.3165H64.4834C65.1553 52.3165 65.7001 51.7717 65.7001 51.0998V14.5999C65.6999 13.928 65.1552 13.3834 64.4831 13.3835C64.1606 13.3835 63.8514 13.5118 63.6232 13.7397L27.1233 50.2396C26.6482 50.7149 26.6484 51.4852 27.1236 51.9603C27.3518 52.1883 27.6609 52.3165 27.9835 52.3165ZM63.2668 17.5369V20.6832H60.8334V23.1166H63.2668V25.5499H60.8334V27.9832H63.2668V30.4165H60.8334V32.8499H63.2668V35.2832H60.8334V37.7165H63.2668V40.1499H60.8334V42.5832H63.2668V45.0165H60.8334V47.4498H63.2668V49.8832H60.8334V47.4498H58.4001V49.8832H55.9668V47.4498H53.5335V49.8832H51.1001V47.4498H48.6668V49.8832H46.2335V47.4498H43.8001V49.8832H41.3668V47.4498H38.9335V49.8832H36.5002V47.4498H34.0668V49.8832H30.9205L63.2668 17.5369Z" fill="#3CC3AE"/>
<path d="M45.6066 45.0165H57.1831C57.855 45.0165 58.3998 44.4718 58.3998 43.7999V32.2233C58.3996 31.5514 57.8549 31.0068 57.1828 31.007C56.8602 31.007 56.5511 31.1352 56.3229 31.3631L44.7464 42.9397C44.2713 43.4149 44.2714 44.1852 44.7467 44.6604C44.9748 44.8883 45.284 45.0165 45.6066 45.0165ZM55.9664 35.1616V42.5832H48.5448L55.9664 35.1616Z" fill="#3CC3AE"/>
<path d="M55.9666 7.30005H31.6333V9.73338H55.9666V7.30005Z" fill="#3CC3AE"/>
<path d="M59.6167 12.1666H27.9834V14.6H59.6167V12.1666Z" fill="#3CC3AE"/>
<path d="M27.9831 37.7166H20.6831V40.1499H27.9831V37.7166Z" fill="#3CC3AE"/>
<path d="M25.5498 42.5833H20.6831V45.0166H25.5498V42.5833Z" fill="#3CC3AE"/>
</svg>
