<svg width="81" height="81" viewBox="0 0 81 81" fill="none" xmlns="http://www.w3.org/2000/svg">
<g clip-path="url(#clip0)">
<path d="M70.3676 11.7813L59.7971 1.18924C59.0389 0.425313 58.0062 -0.00314353 56.9297 -0.000106029H13.5002C11.2634 -0.000106029 9.4502 1.81311 9.4502 4.04989V76.9499C9.4502 79.1867 11.2634 80.9999 13.5002 80.9999H67.5002C69.737 80.9999 71.5502 79.1867 71.5502 76.9499V14.642C71.5532 13.5689 71.1275 12.539 70.3676 11.7813ZM68.8502 76.9499C68.8502 77.6954 68.2457 78.2999 67.5002 78.2999H13.5002C12.7547 78.2999 12.1502 77.6954 12.1502 76.9499V4.04989C12.1502 3.30436 12.7547 2.69989 13.5002 2.69989H56.7002V12.1499C56.7002 14.3867 58.5134 16.1999 60.7502 16.1999H66.1502V13.4999H60.7502C60.0047 13.4999 59.4002 12.8954 59.4002 12.1499V4.61419L68.456 13.6889C68.7095 13.9412 68.8514 14.2844 68.8502 14.642V76.9499Z" fill="#3CC3AE"/>
<path d="M20.2503 8.09998H17.5503V10.8H20.2503V8.09998Z" fill="#3CC3AE"/>
<path d="M49.9502 8.09998H22.9502V10.8H49.9502V8.09998Z" fill="#3CC3AE"/>
<path d="M49.9503 13.4999H17.5503V16.1999H49.9503V13.4999Z" fill="#3CC3AE"/>
<path d="M37.8003 24.2999H18.9003C18.1548 24.2999 17.5503 24.9044 17.5503 25.6499V39.1499C17.5503 39.8955 18.1548 40.4999 18.9003 40.4999H37.8003C38.5458 40.4999 39.1503 39.8955 39.1503 39.1499V25.6499C39.1503 24.9044 38.5458 24.2999 37.8003 24.2999ZM36.4503 37.7999H20.2503V26.9999H36.4503V37.7999Z" fill="#3CC3AE"/>
<path d="M62.1001 24.2999H43.2001C42.4546 24.2999 41.8501 24.9044 41.8501 25.6499V39.1499C41.8501 39.8955 42.4546 40.4999 43.2001 40.4999H62.1001C62.8456 40.4999 63.4501 39.8955 63.4501 39.1499V25.6499C63.4501 24.9044 62.8456 24.2999 62.1001 24.2999ZM60.7501 37.7999H44.5501V26.9999H60.7501V37.7999Z" fill="#3CC3AE"/>
<path d="M20.2503 45.8999H17.5503V48.5999H20.2503V45.8999Z" fill="#3CC3AE"/>
<path d="M39.1502 45.8999H22.9502V48.5999H39.1502V45.8999Z" fill="#3CC3AE"/>
<path d="M44.5501 45.8999H41.8501V48.5999H44.5501V45.8999Z" fill="#3CC3AE"/>
<path d="M63.45 45.8999H47.25V48.5999H63.45V45.8999Z" fill="#3CC3AE"/>
<path d="M39.1503 53.9999H17.5503V56.6999H39.1503V53.9999Z" fill="#3CC3AE"/>
<path d="M39.1503 62.0999H17.5503V64.7999H39.1503V62.0999Z" fill="#3CC3AE"/>
<path d="M39.1503 70.2H17.5503V72.9H39.1503V70.2Z" fill="#3CC3AE"/>
<path d="M63.4501 62.0999H41.8501V64.7999H63.4501V62.0999Z" fill="#3CC3AE"/>
<path d="M63.4501 70.2H41.8501V72.9H63.4501V70.2Z" fill="#3CC3AE"/>
<path d="M63.4501 53.9999H41.8501V56.6999H63.4501V53.9999Z" fill="#3CC3AE"/>
</g>
<defs>
<clipPath id="clip0">
<rect width="81" height="81" fill="white"/>
</clipPath>
</defs>
</svg>
