<svg width="79" height="79" viewBox="0 0 79 79" fill="none" xmlns="http://www.w3.org/2000/svg">
<path d="M62.4355 7.32078V0H16.5645V7.32078C14.3527 8.89354 12.3052 10.6917 10.4611 12.6812H3.82258C1.71531 12.6812 0 14.3883 0 16.4855C0 18.5828 1.71531 20.2899 3.82258 20.2899H4.94123C1.71095 26.0942 0 32.6187 0 39.3116C0 60.9891 17.7205 78.6233 39.5 78.6233C61.2795 78.6233 79 60.9891 79 39.3116C79 26.6038 72.8138 14.7041 62.4355 7.32078ZM76.4516 39.3116C76.4516 42.6188 76.003 45.8219 75.1774 48.8721V45.986C75.1774 43.7333 73.6575 41.7271 71.4811 41.1073L66.2581 39.6237V38.0119C67.7961 36.8528 68.8064 35.0342 68.8064 32.9723V30.4361C68.8064 26.9401 65.9482 24.0955 62.4355 24.0955V10.4824C71.2528 17.4391 76.4516 28.0379 76.4516 39.3116ZM70.0806 57.0653H71.847C71.3001 58.048 70.7128 59.0052 70.0806 59.9309V57.0653ZM5.87386 54.5291C5.49309 53.6987 5.13348 52.8554 4.81369 51.9928H74.1863C73.8665 52.8554 73.5069 53.6987 73.1261 54.5291H5.87386ZM8.91935 59.9309C8.28724 59.0052 7.69991 58.048 7.15303 57.0653H8.91935V59.9309ZM8.91935 17.7536V15.2174H11.4677V17.7536H8.91935ZM14.0161 15.2174H35.2911L37.2023 16.4855L35.2911 17.7536H14.0161V15.2174ZM45.871 19.0218H54.7026C54.1252 23.602 50.4731 27.2354 45.871 27.8113V19.0218ZM45.871 16.4855V7.69601C50.4731 8.27063 54.124 11.9053 54.7026 16.4855H45.871ZM43.3226 25.3952C42.2549 24.5902 40.9397 24.0942 39.5 24.0942C38.6358 24.0942 37.8139 24.2695 37.0624 24.5809C35.9412 23.3561 35.1486 21.8837 34.7361 20.2899H36.0638L41.7977 16.4855L36.0638 12.6812H35.7869C37.3747 9.95609 40.1601 8.10716 43.3226 7.70902V25.3952ZM62.4355 26.6305C64.5428 26.6305 66.2581 28.3376 66.2581 30.4348V32.9711C66.2581 35.0683 64.5428 36.7754 62.4355 36.7754C60.3282 36.7754 58.6129 35.0683 58.6129 32.9711V30.4348C58.6129 28.3376 60.3282 26.6305 62.4355 26.6305ZM62.4355 39.3116C62.871 39.3116 63.2978 39.2671 63.7097 39.1835V40.0547L62.4355 41.3228L61.1613 40.0547V39.1835C61.5732 39.2671 62 39.3116 62.4355 39.3116ZM59.5163 42.0039L62.4355 44.9092L65.3547 42.0039L70.78 43.547C71.8681 43.8566 72.629 44.8584 72.629 45.986V49.4566H70.0806V46.9203H67.5323V49.4566H57.3387V46.9203H54.7903V49.4566H52.2419V45.986C52.2419 44.8584 53.0028 43.8566 54.0898 43.547L59.5163 42.0039ZM49.6935 49.4566H47.1452V46.9203H44.5968V49.4566H34.4032V46.9203H31.8548V49.4566H29.3065V45.986C29.3065 44.8584 30.0674 43.8566 31.1543 43.547L36.5808 42.0039L39.5 44.9092L42.4192 42.0039L47.8445 43.547C48.9326 43.8566 49.6935 44.8584 49.6935 45.986V49.4566ZM40.7742 40.0547L39.5 41.3228L38.2258 40.0547V39.1835C38.6377 39.2671 39.0645 39.3116 39.5 39.3116C39.9355 39.3116 40.3623 39.2671 40.7742 39.1835V40.0547ZM39.5 36.7754C37.3927 36.7754 35.6774 35.0683 35.6774 32.9711V30.4348C35.6774 28.3376 37.3927 26.6305 39.5 26.6305C41.6073 26.6305 43.3226 28.3376 43.3226 30.4348V32.9711C43.3226 35.0683 41.6073 36.7754 39.5 36.7754ZM32.1112 20.2899C32.2904 21.166 32.5697 22.0131 32.9275 22.8261H24.2097V25.3624H34.4032V25.3537C34.5749 25.5803 34.7585 25.8001 34.9458 26.0156C34.4132 26.558 33.9789 27.1946 33.6691 27.8986H24.2097V30.4348H33.129V32.9711C33.129 35.0342 34.1394 36.8528 35.6774 38.0107V39.6225L30.4543 41.1061C29.4887 41.381 28.6644 41.9389 28.0323 42.6609C27.4001 41.9389 26.5758 41.381 25.6102 41.1061L20.3871 39.6237V38.0119C21.9251 36.8528 22.9355 35.0342 22.9355 32.9723V30.4361C22.9355 27.8429 21.3595 25.615 19.1129 24.6329V20.2899H32.1112ZM20.3871 30.4348V32.9711C20.3871 35.0683 18.6718 36.7754 16.5645 36.7754C14.4572 36.7754 12.7419 35.0683 12.7419 32.9711V30.4348C12.7419 28.3376 14.4572 26.6305 16.5645 26.6305C18.6718 26.6305 20.3871 28.3376 20.3871 30.4348ZM16.5645 39.3116C17 39.3116 17.4268 39.2671 17.8387 39.1835V40.0547L16.5645 41.3228L15.2903 40.0547V39.1835C15.7022 39.2671 16.129 39.3116 16.5645 39.3116ZM13.6453 42.0039L16.5645 44.9092L19.4837 42.0039L24.909 43.547C25.9972 43.8566 26.7581 44.8584 26.7581 45.986V49.4566H24.2097V46.9203H21.6613V49.4566H11.4677V46.9203H8.91935V49.4566H6.37097V45.986C6.37097 44.8584 7.13188 43.8566 8.2188 43.547L13.6453 42.0039ZM59.8871 2.53624V24.6317C57.6405 25.6137 56.0645 27.8416 56.0645 30.4348V32.9711C56.0645 35.0342 57.0749 36.8528 58.6129 38.0107V39.6225L53.3898 41.1061C52.4242 41.381 51.5999 41.9389 50.9677 42.6609C50.3356 41.9389 49.5113 41.381 48.5457 41.1061L43.3226 39.6237V38.0119C44.8606 36.8528 45.871 35.0342 45.871 32.9723V30.4361C45.871 30.4144 45.8647 30.394 45.8647 30.3729C52.2979 29.7364 57.3387 24.3202 57.3387 17.7536C57.3387 10.761 51.6229 5.07247 44.5968 5.07247C39.5124 5.07247 34.9308 8.0954 32.9187 12.6812H19.1129V2.53624H59.8871ZM16.5645 10.4849V12.6812H14.0379C14.848 11.914 15.6879 11.1771 16.5645 10.4849ZM2.54839 16.4855C2.54839 15.7871 3.12078 15.2174 3.82258 15.2174H6.37097V17.7536H3.82258C3.12078 17.7536 2.54839 17.184 2.54839 16.4855ZM7.88967 20.2899H16.5645V24.0942C13.0518 24.0942 10.1935 26.9388 10.1935 30.4348V32.9711C10.1935 35.0342 11.2039 36.8528 12.7419 38.0107V39.6225L7.51886 41.1061C5.34253 41.7259 3.82258 43.7321 3.82258 45.986V48.8721C2.99697 45.8219 2.54839 42.6188 2.54839 39.3116C2.54839 32.5729 4.40368 26.0168 7.88967 20.2899ZM39.5 76.0871C28.2973 76.0871 18.2506 71.0932 11.4677 63.2306V62.1378H57.3387V59.6015H11.4677V57.0653H67.5323V59.6015H59.8871V62.1378H67.5323V63.2306C60.7494 71.0932 50.7027 76.0871 39.5 76.0871Z" fill="#3CC3AE"/>
<path d="M21.6611 5.07251H24.2095V7.60868H21.6611V5.07251Z" fill="#3CC3AE"/>
<path d="M26.7578 5.07251H29.3062V7.60868H26.7578V5.07251Z" fill="#3CC3AE"/>
<path d="M31.8545 5.07251H34.4028V7.60868H31.8545V5.07251Z" fill="#3CC3AE"/>
</svg>
