<svg width="84" height="84" viewBox="0 0 84 84" fill="none" xmlns="http://www.w3.org/2000/svg">
<g clip-path="url(#clip0)">
<path d="M83.9998 44.8008V39.2008C83.9998 38.4277 83.373 37.8008 82.5998 37.8008H61.5999V9.80089C61.5999 9.02775 60.973 8.4009 60.1999 8.4009H48.8445C50.7345 6.56235 51.8006 4.03763 51.7999 1.40091C51.7999 0.627764 51.173 0.000915527 50.3999 0.000915527C46.9547 0.00634052 43.7653 1.82056 41.9999 4.7791C40.2345 1.82056 37.0451 0.00634052 33.5999 0.000915527C32.8268 0.000915527 32.1999 0.627764 32.1999 1.40091C32.1992 4.03763 33.2653 6.56235 35.1553 8.4009H23.8C23.0268 8.4009 22.4 9.02775 22.4 9.80089V37.8008H1.4C0.626849 37.8008 0 38.4277 0 39.2008V44.8008C0 45.574 0.626849 46.2008 1.4 46.2008H47.3731L38.9731 49.0008H18.2C17.8286 49.0008 17.4727 49.1485 17.2102 49.411L11.2 55.4212L9.38978 53.611C8.84308 53.0645 7.95688 53.0645 7.41018 53.611L0.410199 60.611C-0.136325 61.1577 -0.136325 62.0439 0.410199 62.5906L21.4102 83.5905C21.9569 84.137 22.8431 84.137 23.3898 83.5905L30.3897 76.5905C30.9363 76.0438 30.9363 75.1576 30.3897 74.6109L30.1587 74.3799L38.2479 68.6008H65.7999C66.1502 68.6008 66.488 68.4693 66.7463 68.2326L81.9698 54.2788C84.2655 52.1776 84.6654 48.7075 82.9078 46.1392C83.5401 46.0036 83.9939 45.4474 83.9998 44.8008ZM48.8207 2.98011C48.2122 5.58183 46.1808 7.61322 43.5791 8.2217C44.1876 5.61998 46.219 3.58858 48.8207 2.98011ZM40.4207 8.2217C37.819 7.61322 35.7876 5.58183 35.1791 2.98011C37.7808 3.58858 39.8122 5.61998 40.4207 8.2217ZM25.1999 11.2009H58.7999V37.8008H43.7499L55.7199 21.8409C56.0932 21.3432 56.0932 20.6586 55.7199 20.1609L51.5199 14.5609C51.2555 14.2084 50.8405 14.0009 50.3999 14.0009H33.5999C33.1593 14.0009 32.7444 14.2084 32.4799 14.5609L28.2799 20.1609C27.9067 20.6586 27.9067 21.3432 28.2799 21.8409L40.2499 37.8008H25.1999V11.2009ZM35.4199 22.4009L38.4509 30.735L32.1999 22.4009H35.4199ZM32.1999 19.6009L34.2999 16.8009H38.6203L35.8203 19.6009H32.1999ZM38.3977 22.4009H45.6021L41.9999 32.3044L38.3977 22.4009ZM39.7795 19.6009L41.9999 17.3805L44.2203 19.6009H39.7795ZM48.1795 19.6009L45.3795 16.8009H49.6999L51.7999 19.6009H48.1795ZM51.7999 22.4009L45.5489 30.735L48.5799 22.4009H51.7999ZM2.79999 43.4008V40.6008H81.1998V43.4008H2.79999ZM59.8371 47.0051C59.6877 46.7228 59.5144 46.4537 59.3193 46.2008H71.9178L62.4679 54.6008H57.4993C60.2424 53.1488 61.2891 49.7481 59.8371 47.0051ZM22.4 80.6211L3.37959 61.6008L8.39998 56.5804L27.4203 75.6007L22.4 80.6211ZM80.0798 52.2206L65.2553 65.8006H37.7999C37.5082 65.8006 37.224 65.8916 36.9865 66.061L28.1511 72.3722L13.1796 57.4006L18.7796 51.8006H39.1999C39.3502 51.8008 39.4997 51.7766 39.6423 51.7292L53.9643 46.9552C55.445 46.4584 57.0481 47.2561 57.545 48.7367C58.0418 50.2174 57.2441 51.8206 55.7635 52.3174C55.7103 52.3352 55.6565 52.3515 55.6023 52.3662L47.4123 54.6006H43.3999V57.4006H62.9999C63.3425 57.4008 63.6733 57.2751 63.9295 57.0478L75.1504 47.0742C75.7832 46.5113 76.6008 46.2003 77.4478 46.2006H77.7376C79.649 46.1938 81.204 47.7377 81.2109 49.6488C81.2144 50.6276 80.8035 51.5619 80.0798 52.2206Z" fill="#3CC3AE"/>
<path d="M7.99062 59.2113L6.01074 61.1912L10.211 65.3915L12.1909 63.4116L7.99062 59.2113Z" fill="#3CC3AE"/>
<path d="M68.5998 5.60028H65.7998V8.40028H68.5998V5.60028Z" fill="#3CC3AE"/>
<path d="M71.3996 2.80042H68.5996V5.60041H71.3996V2.80042Z" fill="#3CC3AE"/>
<path d="M74.1999 5.60028H71.3999V8.40028H74.1999V5.60028Z" fill="#3CC3AE"/>
<path d="M71.3996 8.40033H68.5996V11.2003H71.3996V8.40033Z" fill="#3CC3AE"/>
<path d="M83.9997 1.40033H81.1997V4.20032H83.9997V1.40033Z" fill="#3CC3AE"/>
<path d="M72.8 16.8004H70V19.6003H72.8V16.8004Z" fill="#3CC3AE"/>
<path d="M15.4001 15.4003H12.6001V18.2003H15.4001V15.4003Z" fill="#3CC3AE"/>
<path d="M15.4001 21.0003H12.6001V23.8003H15.4001V21.0003Z" fill="#3CC3AE"/>
<path d="M18.1999 18.2003H15.3999V21.0003H18.1999V18.2003Z" fill="#3CC3AE"/>
<path d="M12.5998 18.2003H9.7998V21.0003H12.5998V18.2003Z" fill="#3CC3AE"/>
<path d="M2.79999 8.40033H0V11.2003H2.79999V8.40033Z" fill="#3CC3AE"/>
<path d="M15.4001 1.40033H12.6001V4.20032H15.4001V1.40033Z" fill="#3CC3AE"/>
</g>
<defs>
<clipPath id="clip0">
<rect width="84" height="84" fill="white"/>
</clipPath>
</defs>
</svg>
