<svg width="78" height="81" viewBox="0 0 78 81" fill="none" xmlns="http://www.w3.org/2000/svg">
<path d="M11.2204 50.7063H33.5763C34.2557 50.7063 34.806 50.1885 34.806 49.5492C34.806 48.91 34.2557 48.3922 33.5763 48.3922H11.2204C10.5411 48.3922 9.99072 48.91 9.99072 49.5492C9.99072 50.1885 10.5411 50.7063 11.2204 50.7063Z" fill="#3CC3AE"/>
<path d="M60.7824 42.1608V17.9488C60.7824 17.6479 60.6575 17.3587 60.4345 17.143L43.1121 0.351254C42.8802 0.126555 42.5618 0 42.2296 0H7.71866C3.45789 0.00451982 0.00480357 3.25298 0 7.26205V64.6159C0.00480357 68.625 3.45789 71.8741 7.71866 71.8786H39.6254C44.7179 79.4674 54.6448 82.823 63.7051 80.0182C72.7653 77.2133 78.6359 68.9672 77.9449 60.016C77.2539 51.0649 70.1782 43.704 60.7824 42.1608ZM43.4593 4.01037L56.6452 16.7918H45.4741C44.3617 16.7905 43.4607 15.9427 43.4593 14.896V4.01037ZM7.71866 69.5645C4.81524 69.5612 2.46286 67.3478 2.45943 64.6159V7.26205C2.46286 4.53079 4.81524 2.31737 7.71866 2.31415H40.9999V14.896C41.0033 17.2199 43.0044 19.1027 45.4741 19.1059H58.3237V41.8987C57.9531 41.88 57.5805 41.8703 57.2051 41.8703C47.0229 41.8825 38.3428 48.8205 36.6836 58.2733H11.2205C10.5411 58.2733 9.99076 58.7918 9.99076 59.4304C9.99076 60.0696 10.5411 60.5875 11.2205 60.5875H36.4296C36.4166 60.8684 36.4091 61.1518 36.4091 61.4366C36.4056 64.2421 37.0473 67.0147 38.29 69.5645H7.71866ZM57.2038 78.6887C47.0771 78.6887 38.8678 70.9643 38.8685 61.4359C38.8685 51.9075 47.0778 44.1831 57.2044 44.1838C67.3311 44.1838 75.5404 51.9081 75.5397 61.4366C75.5287 70.9605 67.3256 78.6784 57.2038 78.6893V78.6887Z" fill="#3CC3AE"/>
<path d="M56.413 52.3956C58.6439 52.3982 60.4515 54.0989 60.4535 56.1974C60.4535 56.8367 61.0046 57.3545 61.6832 57.3545C62.3626 57.3545 62.913 56.8367 62.913 56.1974C62.9088 53.2679 60.6999 50.751 57.6427 50.1932V48.5144C57.6427 47.8751 57.0924 47.3573 56.413 47.3573C55.7343 47.3573 55.1833 47.8751 55.1833 48.5144V50.1932C51.8956 50.7911 49.629 53.6418 49.9474 56.7792C50.2651 59.916 53.0642 62.3115 56.413 62.3134C58.6192 62.3347 60.3993 64.0167 60.4124 66.092C60.4261 68.1672 58.668 69.8693 56.4631 69.9164C56.4467 69.9164 56.4302 69.9138 56.413 69.9138C56.3966 69.9138 56.3801 69.9158 56.3636 69.9164C54.1526 69.8886 52.3753 68.1956 52.3725 66.1152C52.3725 65.4766 51.8222 64.9581 51.1428 64.9581C50.4641 64.9581 49.9131 65.4766 49.9131 66.1152C49.9179 69.0454 52.1269 71.5623 55.1833 72.1201V74.0249C55.1833 74.6635 55.7343 75.182 56.413 75.182C57.0924 75.182 57.6427 74.6635 57.6427 74.0249V72.1201C60.9311 71.5222 63.1977 68.6709 62.8793 65.5341C62.5609 62.3973 59.7625 60.0018 56.413 59.9993C54.1821 59.9993 52.3725 58.2972 52.3725 56.1974C52.3725 54.0983 54.1821 52.3956 56.413 52.3956Z" fill="#3CC3AE"/>
<path d="M11.2204 41.4772H42.8418C43.5211 41.4772 44.0715 40.9587 44.0715 40.3201C44.0715 39.6809 43.5211 39.163 42.8418 39.163H39.9822V23.6181C39.9822 22.9789 39.4319 22.4611 38.7525 22.4611H34.5295C33.8508 22.4611 33.2998 22.9789 33.2998 23.6181V39.163H31.8367V28.0075C31.8367 27.3683 31.2857 26.8505 30.607 26.8505H26.384C25.7046 26.8505 25.1543 27.3683 25.1543 28.0075V39.163H23.6905V33.2847C23.6905 32.6455 23.1402 32.1276 22.4608 32.1276H18.2378C17.5591 32.1276 17.0081 32.6455 17.0081 33.2847V39.163H12.4502V13.794C12.4502 13.1554 11.8998 12.637 11.2204 12.637C10.5418 12.637 9.99072 13.1554 9.99072 13.794V40.3201C9.99072 40.9587 10.5418 41.4772 11.2204 41.4772ZM35.7592 24.7746H37.5228V39.163H35.7592V24.7746ZM27.6137 29.1646H29.3773V39.163H27.6137V29.1646ZM19.4675 34.4418H21.2311V39.163H19.4675V34.4418Z" fill="#3CC3AE"/>
<path d="M14.3971 28.1241C14.4403 28.1241 14.4829 28.1216 14.5254 28.1177C14.6832 28.1022 18.4547 27.7167 23.0881 25.7028C26.7937 24.0918 31.6742 21.1287 35.2425 15.8941L36.0303 19.601C36.1449 20.1415 36.6493 20.5308 37.2346 20.5315C37.3163 20.5315 37.3973 20.5237 37.4776 20.5089C38.1432 20.3836 38.5748 19.7741 38.4417 19.1471L37.0336 12.5217C36.932 12.1756 36.6795 11.8869 36.3391 11.7262C35.9981 11.566 35.6014 11.5486 35.246 11.6797L28.5388 12.9762C27.8739 13.1047 27.445 13.7162 27.5815 14.3425C27.7181 14.9682 28.3686 15.3717 29.0336 15.2432L33.3287 14.4129C30.71 18.38 26.9577 21.4554 22.1363 23.5675C17.8605 25.44 14.3058 25.8126 14.2701 25.8152C13.6196 25.8791 13.1365 26.4111 13.1701 27.0258C13.2037 27.6405 13.7431 28.1229 14.3971 28.1235V28.1241Z" fill="#3CC3AE"/>
</svg>
