<svg width="18" height="18" viewBox="0 0 18 18" fill="none" xmlns="http://www.w3.org/2000/svg">
<path d="M17.5373 13.277L15.2997 11.0394C14.6828 10.4226 13.6789 10.4226 13.0621 11.0394L12.045 12.0565C11.5776 12.5239 10.8171 12.5237 10.35 12.0567L5.94149 7.64444C5.47305 7.17599 5.47298 6.4178 5.94149 5.94929C6.10532 5.78546 6.57573 5.31505 6.95857 4.93221C7.57277 4.31804 7.58135 3.31735 6.95797 2.69405L4.72097 0.464076C4.10407 -0.152794 3.10028 -0.152794 2.48503 0.462458C2.02463 0.918844 1.87614 1.06607 1.6697 1.27071C-0.554923 3.49531 -0.554923 7.115 1.6696 9.33952L8.65467 16.3283C10.8845 18.5581 14.4935 18.5583 16.7236 16.3283L17.5373 15.5146C18.1542 14.8977 18.1542 13.8939 17.5373 13.277ZM3.22926 1.20993C3.43489 1.00431 3.76942 1.00427 3.97572 1.21049L6.21272 3.44046C6.41883 3.64658 6.41883 3.98017 6.21272 4.18632L5.83976 4.55925L2.85823 1.57772L3.22926 1.20993ZM9.40067 15.5825L2.41556 8.5937C0.694426 6.87257 0.599823 4.17001 2.12461 2.33585L5.09749 5.30872C4.31634 6.19425 4.34889 7.54361 5.19546 8.39019L9.6038 12.8022C9.60383 12.8022 9.6039 12.8023 9.60394 12.8024C10.4496 13.648 11.7989 13.6827 12.6855 12.9005L15.6585 15.8734C13.8301 17.3956 11.1336 17.3155 9.40067 15.5825ZM16.7914 14.7687L16.4185 15.1417L13.435 12.1582L13.8079 11.7853C14.0136 11.5797 14.3481 11.5796 14.5538 11.7853L16.7914 14.0229C16.9971 14.2285 16.9971 14.5631 16.7914 14.7687Z" fill="white"/>
</svg>
