<svg width="41" height="65" viewBox="0 0 41 65" fill="none" xmlns="http://www.w3.org/2000/svg">
<path d="M20.5 0C15.0653 0.0075291 9.85541 2.19573 6.01253 6.08482C2.16964 9.97392 0.00743965 15.2465 0 20.7465L0 44.2535C0 49.7558 2.15982 55.0328 6.00431 58.9235C9.84881 62.8142 15.0631 65 20.5 65C25.9369 65 31.1512 62.8142 34.9957 58.9235C38.8402 55.0328 41 49.7558 41 44.2535V20.7465C40.9926 15.2465 38.8304 9.97392 34.9875 6.08482C31.1446 2.19573 25.9347 0.0075291 20.5 0V0ZM20.5 19.5797C19.7542 19.5797 19.0389 19.2799 18.5116 18.7461C17.9842 18.2124 17.6879 17.4886 17.6879 16.7338V8.99299C17.5746 8.57093 17.5589 8.1281 17.6421 7.6989C17.7253 7.2697 17.9051 6.86568 18.1676 6.51821C18.4301 6.17074 18.7682 5.88918 19.1556 5.69538C19.543 5.50159 19.9694 5.40078 20.4016 5.40078C20.8338 5.40078 21.2601 5.50159 21.6476 5.69538C22.035 5.88918 22.3731 6.17074 22.6356 6.51821C22.8981 6.86568 23.0779 7.2697 23.1611 7.6989C23.2443 8.1281 23.2286 8.57093 23.1152 8.99299V16.8192C23.096 17.5258 22.8175 18.2 22.3341 18.7102C21.8506 19.2205 21.1968 19.5305 20.5 19.5797ZM19.3471 2.50438V4.21191C18.2669 4.45844 17.2987 5.06246 16.5959 5.9284C15.893 6.79434 15.4956 7.87275 15.4664 8.99299V16.8192C15.4782 17.9506 15.8681 19.0448 16.5728 19.9233C17.2775 20.8018 18.2553 21.4129 19.3471 21.6572V23.4785H2.3059V20.6327C2.34689 15.9822 4.12786 11.5204 7.29002 8.14591C10.4522 4.77147 14.7605 2.73524 19.3471 2.44746V2.50438ZM20.5 62.6095C15.6866 62.602 11.0717 60.6675 7.66283 57.2283C4.25399 53.7891 2.32818 49.1247 2.3059 44.2535V25.8406H38.6941V44.2535C38.6718 49.1247 36.746 53.7891 33.3372 57.2283C29.9283 60.6675 25.3134 62.602 20.5 62.6095ZM38.6941 23.507H21.6529V21.6856C22.7447 21.4414 23.7225 20.8302 24.4272 19.9517C25.1319 19.0732 25.5218 17.9791 25.5336 16.8476V8.99299C25.5169 7.8629 25.1251 6.77134 24.4212 5.89384C23.7173 5.01634 22.7423 4.4039 21.6529 4.15499V2.44746C26.2588 2.73662 30.5832 4.78886 33.7482 8.18749C36.9132 11.5861 38.6815 16.0764 38.6941 20.7465V23.507Z"/>
</svg>
