<svg width="27" height="27" viewBox="0 0 27 27" fill="currentColor" xmlns="http://www.w3.org/2000/svg">
<path d="M19.8281 4.79883H7.17188C5.8634 4.79883 4.79883 5.8634 4.79883 7.17188V19.8281C4.79883 21.1366 5.8634 22.2012 7.17188 22.2012H19.8281C21.1366 22.2012 22.2012 21.1366 22.2012 19.8281V7.17188C22.2012 5.8634 21.1366 4.79883 19.8281 4.79883ZM13.5 19.0371C10.4472 19.0371 7.96289 16.5528 7.96289 13.5C7.96289 10.4472 10.4472 7.96289 13.5 7.96289C16.5528 7.96289 19.0371 10.4472 19.0371 13.5C19.0371 16.5528 16.5528 19.0371 13.5 19.0371ZM19.0371 9.54492C18.1649 9.54492 17.4551 8.83507 17.4551 7.96289C17.4551 7.09071 18.1649 6.38086 19.0371 6.38086C19.9093 6.38086 20.6191 7.09071 20.6191 7.96289C20.6191 8.83507 19.9093 9.54492 19.0371 9.54492Z"/>
<path d="M13.5 9.54492C11.3194 9.54492 9.54492 11.3194 9.54492 13.5C9.54492 15.6806 11.3194 17.4551 13.5 17.4551C15.6806 17.4551 17.4551 15.6806 17.4551 13.5C17.4551 11.3194 15.6806 9.54492 13.5 9.54492Z"/>
<path d="M22.9922 0H4.00781C1.82716 0 0 1.82716 0 4.00781V22.9922C0 25.1728 1.82716 27 4.00781 27H22.9922C25.1728 27 27 25.1728 27 22.9922V4.00781C27 1.82716 25.1728 0 22.9922 0ZM23.7832 19.8281C23.7832 22.0088 22.0088 23.7832 19.8281 23.7832H7.17188C4.99123 23.7832 3.2168 22.0088 3.2168 19.8281V7.17188C3.2168 4.99123 4.99123 3.2168 7.17188 3.2168H19.8281C22.0088 3.2168 23.7832 4.99123 23.7832 7.17188V19.8281Z"/>
</svg>
