<svg width="33" height="17" viewBox="0 0 33 17" fill="none" xmlns="http://www.w3.org/2000/svg">
<path d="M28.8208 6.01173C32.1566 1.49562 31.4168 1.41101 32.237 0H25.8446C25.8446 0 25.3903 1.57727 25.2516 1.85962C24.0238 4.35674 21.2699 8.10353 19.6044 8.48647C17.9644 8.86376 18.182 4.98809 18.2831 3.30924C18.3783 1.75313 18.3621 1.20859 18.3163 0.939771C18.2494 0.546991 17.9198 0.26046 17.5244 0.210532C16.709 0.107234 15.2297 -0.03886 13.5729 0.0378761L12.0909 0.0870659C12.6752 1.39429 13.07 0.993634 13.2852 2.50598C13.5282 4.27656 13.4325 8.58485 11.6887 8.58485C8.89327 8.58485 5.75545 0.189135 5.6556 0H0L0.517477 1.29492C4.68804 11.7355 9.90412 16.5711 17.0408 16.9732L17.9695 17L18.0359 16.0981C18.1363 14.7053 18.835 12.7003 20.0744 12.7003C21.9055 12.7003 22.4345 13.2335 23.6421 14.7257C24.8032 16.1564 25.6033 17 27.4769 17H32.237L31.5582 15.635C30.4982 13.5068 28.3719 11.6823 27.5416 10.624C27.2408 10.2256 26.9447 9.5957 27.2512 8.83375C27.5018 8.17018 28.248 6.78623 28.8208 6.01173V6.01173Z" fill="white"/>
</svg>
