<svg width="46" height="64" viewBox="0 0 46 64" xmlns="http://www.w3.org/2000/svg">
<path d="M0 64H46V0H0V64ZM2.29162 2.28771H43.7084V61.7123H2.29162V2.28771Z"/>
<path d="M34.5419 15.4839C34.3914 15.4839 34.2424 15.5135 34.1034 15.571C33.9644 15.6284 33.8381 15.7127 33.7317 15.8189C33.6253 15.9251 33.5409 16.0512 33.4833 16.19C33.4257 16.3288 33.3961 16.4775 33.3961 16.6277V37.5519L24.0061 19.9477C24.0061 19.9477 23.8384 19.9477 23.7545 19.7245C23.6707 19.5013 23.7545 19.5013 23.503 19.4455C23.3558 19.413 23.2032 19.413 23.0559 19.4455C22.9268 19.4192 22.7937 19.4192 22.6646 19.4455H22.3572C22.3572 19.4455 22.3572 19.5292 22.3572 19.7524C22.3572 19.9756 22.1616 19.7524 22.1057 19.9756L10.4241 43.0201C10.2875 43.2902 10.2638 43.6034 10.3581 43.891C10.4524 44.1786 10.657 44.4172 10.9271 44.5545C11.093 44.5891 11.2642 44.5891 11.4301 44.5545C11.6455 44.5554 11.8567 44.4956 12.0396 44.3821C12.2225 44.2686 12.3696 44.106 12.4641 43.9128L17.9137 33.0323H28.4216L33.3682 42.3226V48.6556C33.3682 48.959 33.4889 49.25 33.7038 49.4645C33.9186 49.679 34.2101 49.7995 34.514 49.7995C34.8179 49.7995 35.1093 49.679 35.3242 49.4645C35.5391 49.25 35.6598 48.959 35.6598 48.6556V16.7393C35.6752 16.5823 35.658 16.4238 35.6091 16.2738C35.5602 16.1238 35.4808 15.9855 35.3758 15.8676C35.2709 15.7497 35.1426 15.6547 34.9991 15.5887C34.8556 15.5227 34.6999 15.487 34.5419 15.4839ZM19.0595 30.8562L23.0279 22.9608L27.2199 30.8562H19.0595Z"/>
</svg>
