<svg width="29" height="29" viewBox="0 0 29 29" xmlns="http://www.w3.org/2000/svg">
<path d="M26.5788 0.89209H2.39152C1.56331 0.892588 0.891924 1.56431 0.89209 2.39285V26.5802C0.892588 27.4084 1.56431 28.0798 2.39285 28.0796H15.4151V17.5657H11.8839V13.4504H15.4151V10.4218C15.4151 6.90971 17.5592 4.99809 20.6921 4.99809C22.1927 4.99809 23.4822 5.10994 23.8581 5.15988V8.83063H21.6977C19.9932 8.83063 19.6631 9.64058 19.6631 10.8294V13.4504H23.7386L23.2076 17.5657H19.6631V28.0796H26.5788C27.4075 28.0798 28.0794 27.4082 28.0796 26.5795C28.0796 26.5793 28.0796 26.5792 28.0796 26.5788V2.39152C28.0793 1.56331 27.4074 0.891924 26.5788 0.89209Z"/>
</svg>
