<svg width="64" height="64" viewBox="0 0 64 64" xmlns="http://www.w3.org/2000/svg">
<g>
<path d="M25.4372 10.1749C21.8748 10.1744 18.4224 11.4093 15.6684 13.6689C12.9143 15.9286 11.029 19.0733 10.3336 22.5672C9.63826 26.0611 10.1759 29.688 11.8549 32.83C13.5338 35.9719 16.2503 38.4345 19.5415 39.7981C22.8326 41.1617 26.4947 41.342 29.9038 40.3082C33.313 39.2744 36.2582 37.0905 38.2376 34.1287C40.2171 31.1668 41.1083 27.6102 40.7594 24.0649C40.4105 20.5196 38.8432 17.2049 36.3243 14.6857C34.8981 13.2513 33.2014 12.114 31.3326 11.3397C29.4638 10.5655 27.4601 10.1695 25.4372 10.1749ZM34.3572 34.4928C32.5929 36.2577 30.3448 37.4598 27.8972 37.947C25.4497 38.4341 22.9126 38.1845 20.607 37.2297C18.3013 36.2749 16.3306 34.6577 14.944 32.5828C13.5575 30.5079 12.8174 28.0684 12.8174 25.5728C12.8174 23.0773 13.5575 20.6378 14.944 18.5629C16.3306 16.4879 18.3013 14.8708 20.607 13.916C22.9126 12.9612 25.4497 12.7116 27.8972 13.1987C30.3448 13.6859 32.5929 14.8879 34.3572 16.6529C35.5201 17.8151 36.4426 19.1951 37.0721 20.714C37.7015 22.2329 38.0254 23.8609 38.0254 25.505C38.0254 27.1491 37.7015 28.7772 37.0721 30.2961C36.4426 31.8149 35.5201 33.1949 34.3572 34.3572V34.4928Z"/>
<path d="M47.1776 38.5966C50.3982 33.2787 51.5598 26.9654 50.4428 20.8494C49.3259 14.7334 46.0077 9.23822 41.1152 5.40201C36.2227 1.56579 30.0947 -0.345823 23.8888 0.0283055C17.6829 0.402434 11.8289 3.0364 7.4327 7.43259C3.0365 11.8288 0.402541 17.6828 0.0284123 23.8887C-0.345716 30.0946 1.5659 36.2226 5.40211 41.1151C9.23833 46.0076 14.7335 49.3258 20.8495 50.4427C26.9655 51.5597 33.2788 50.3981 38.5967 47.1774L53.6556 62.2363C54.806 63.3115 56.3291 63.8977 57.9035 63.8711C59.478 63.8445 60.9805 63.2073 62.0939 62.0938C63.2074 60.9804 63.8447 59.4779 63.8712 57.9034C63.8978 56.329 63.3116 54.8058 62.2364 53.6555L47.1776 38.5966ZM60.2692 60.2691C59.6402 60.8605 58.8093 61.1898 57.946 61.1898C57.0826 61.1898 56.2517 60.8605 55.6227 60.2691L38.9698 43.6162L38.0202 44.2606C33.392 47.4667 27.7359 48.8346 22.1541 48.0979C16.5723 47.3611 11.4649 44.5724 7.82708 40.2753C4.18927 35.9782 2.28178 30.4805 2.47634 24.8537C2.6709 19.2269 4.95357 13.8741 8.87949 9.83853C12.8054 5.80294 18.0933 3.3737 23.7126 3.02424C29.3319 2.67478 34.8801 4.43012 39.2757 7.94819C43.6714 11.4663 46.5997 16.495 47.4899 22.0543C48.3802 27.6137 47.1685 33.3053 44.0912 38.0201L43.4468 38.9697L60.0997 55.6565C60.7048 56.262 61.0587 57.074 61.0901 57.9295C61.1216 58.785 60.8283 59.6208 60.2692 60.2691Z"/>
</g>
<defs>
<clipPath>
<rect width="64" height="64"/>
</clipPath>
</defs>
</svg>
