<svg width="83" height="62" viewBox="0 0 83 62" xmlns="http://www.w3.org/2000/svg">
<g>
<path d="M41.5 19.6297C38.245 19.6227 35.0614 20.5715 32.353 22.3556C29.6446 24.1398 27.5337 26.6789 26.2881 29.6508C25.0426 32.6226 24.7185 35.8931 25.3571 39.0473C25.9956 42.2014 27.568 45.097 29.8747 47.3665C32.1814 49.6359 35.1184 51.177 38.3129 51.7941C41.5074 52.4112 44.8154 52.0765 47.8171 50.8324C50.8188 49.5884 53.3788 47.4911 55.1722 44.8067C56.9657 42.1224 57.9117 38.972 57.8902 35.7554C57.8615 31.4749 56.1232 27.3789 53.0536 24.3588C49.984 21.3387 45.8315 19.639 41.5 19.6297ZM41.5 49.1637C38.8426 49.1636 36.2447 48.3862 34.0337 46.9293C31.8228 45.4725 30.0976 43.4014 29.0758 40.9772C28.054 38.553 27.7812 35.8841 28.2918 33.307C28.8024 30.7298 30.0735 28.3596 31.945 26.4953C33.8165 24.6309 36.2046 23.3557 38.8083 22.8304C41.412 22.3051 44.1147 22.5533 46.576 23.5436C49.0372 24.5339 51.1466 26.222 52.6386 28.3952C54.1305 30.5684 54.938 33.1294 54.9595 35.7554C54.9738 37.5111 54.6362 39.2523 53.9662 40.8784C53.2963 42.5046 52.3071 43.9836 51.0559 45.2301C49.8046 46.4766 48.316 47.4659 46.6759 48.1411C45.0358 48.8162 43.2767 49.1638 41.5 49.1637Z"/>
<path d="M81.5527 9.7255H57.3112L52.7886 0.822388C52.6689 0.580248 52.484 0.375385 52.2543 0.230306C52.0245 0.0852263 51.7587 0.00554353 51.486 1.14989e-05H31.5501C31.2713 -0.00107955 30.9979 0.0754909 30.7611 0.220944C30.5243 0.366397 30.3338 0.574844 30.2114 0.822388L25.7249 9.7255H1.48344C1.09 9.7255 0.712686 9.87995 0.434488 10.1549C0.15629 10.4298 0 10.8027 0 11.1915V60.534C0 60.9228 0.15629 61.2957 0.434488 61.5706C0.712686 61.8456 1.09 62 1.48344 62H81.5527C81.9462 62 82.3235 61.8456 82.6017 61.5706C82.8799 61.2957 83.0362 60.9228 83.0362 60.534V11.1915C83.0362 10.8027 82.8799 10.4298 82.6017 10.1549C82.3235 9.87995 81.9462 9.7255 81.5527 9.7255ZM80.0693 59.0323H2.96687V12.5502H26.6295C26.9083 12.5513 27.1817 12.4747 27.4185 12.3293C27.6553 12.1838 27.8458 11.9754 27.9682 11.7278L32.5632 2.93196H50.6539L55.1765 11.8351C55.2989 12.0826 55.4894 12.2911 55.7262 12.4365C55.963 12.582 56.2365 12.6585 56.5153 12.6575H80.1779L80.0693 59.0323Z"/>
</g>
<defs>
<clipPath>
<rect width="83" height="62"/>
</clipPath>
</defs>
</svg>
