<svg width="85" height="59" viewBox="0 0 85 59" xmlns="http://www.w3.org/2000/svg">
<g>
<path d="M83.5114 50.8672H79.7898V1.51566C79.7903 1.12617 79.6398 0.751452 79.3695 0.469243C79.0993 0.187034 78.7301 0.0189993 78.3384 0L6.66155 0C6.25687 0 5.86877 0.159686 5.58262 0.443928C5.29647 0.72817 5.13572 1.11369 5.13572 1.51566V50.8672H1.41417C1.0095 50.8672 0.621398 51.0269 0.335249 51.3111C0.0490997 51.5953 -0.111657 51.9809 -0.111657 52.3828C-0.131831 53.2736 0.029298 54.1592 0.362067 54.9866C0.694836 55.814 1.19239 56.5661 1.8249 57.1979C2.4574 57.8296 3.21183 58.328 4.04294 58.663C4.87405 58.9981 5.76472 59.163 6.66155 59.1479H78.3756C80.1359 59.1381 81.8208 58.4366 83.062 57.1967C84.3033 55.9568 85 54.2793 85 52.5307C85.0206 52.3227 84.9976 52.1127 84.9325 51.9139C84.8674 51.7151 84.7617 51.5318 84.6219 51.3756C84.4821 51.2194 84.3112 51.0935 84.1201 51.006C83.929 50.9185 83.7218 50.8713 83.5114 50.8672ZM8.18738 3.03133H76.8126V50.8672H8.18738V3.03133ZM42.5372 55.9687C41.8588 55.9497 41.1985 55.7467 40.6279 55.3819C40.0572 55.017 39.5978 54.504 39.2995 53.8985H45.7377C45.4394 54.504 44.98 55.017 44.4093 55.3819C43.8387 55.7467 43.1784 55.9497 42.5 55.9687H42.5372ZM3.38659 53.8985H36.1734C36.3462 54.6354 36.6486 55.3362 37.0665 55.9687H6.66155C5.97675 55.9564 5.30865 55.7566 4.73082 55.3913C4.15299 55.0261 3.68784 54.5095 3.38659 53.8985ZM78.3756 55.9687H47.9707C48.3914 55.3377 48.694 54.6364 48.8638 53.8985H81.6506C81.3493 54.5095 80.8842 55.0261 80.3064 55.3913C79.7285 55.7566 79.0604 55.9564 78.3756 55.9687Z"/>
<path d="M74.7658 47.3183V6.65409C74.7658 6.25211 74.605 5.8666 74.3189 5.58236C74.0327 5.29811 73.6446 5.13843 73.2399 5.13843H11.7601C11.3554 5.13843 10.9673 5.29811 10.6812 5.58236C10.395 5.8666 10.2343 6.25211 10.2343 6.65409V47.3183C10.2343 47.7202 10.395 48.1057 10.6812 48.39C10.9673 48.6742 11.3554 48.8339 11.7601 48.8339H73.2399C73.6446 48.8339 74.0327 48.6742 74.3189 48.39C74.605 48.1057 74.7658 47.7202 74.7658 47.3183ZM71.7141 45.8026H13.2859V8.13279H71.7141V45.8026Z"/>
</g>
<defs>
<clipPath>
<rect width="85" height="59"/>
</clipPath>
</defs>
</svg>
