<svg width="27" height="27" viewBox="0 0 27 27" fill="currentColor" xmlns="http://www.w3.org/2000/svg">
<path d="M25.5638 0H1.43617C0.64283 0 0 0.643117 0 1.43617V25.5638C0 26.3569 0.64283 27 1.43617 27H25.5638C26.3572 27 27 26.3569 27 25.5638V1.43617C27 0.643117 26.3572 0 25.5638 0ZM21.5049 15.207C22.2408 15.9251 23.0189 16.6013 23.6799 17.3949C23.9723 17.7453 24.248 18.1072 24.458 18.5148C24.757 19.0962 24.487 19.7347 23.9659 19.7689L20.7328 19.768C19.8981 19.8367 19.2335 19.5006 18.6728 18.9299C18.2261 18.4746 17.8108 17.9886 17.3802 17.5184C17.2047 17.3251 17.0186 17.1433 16.7986 16.9997C16.358 16.7136 15.9751 16.8009 15.722 17.2608C15.4647 17.7289 15.4052 18.2483 15.3817 18.7702C15.3458 19.5328 15.116 19.7318 14.3511 19.7672C12.7167 19.8441 11.1654 19.596 9.72431 18.7725C8.45215 18.0458 7.46837 17.0192 6.61127 15.8582C4.94071 13.5939 3.66137 11.1085 2.51244 8.55182C2.25364 7.97591 2.44293 7.66771 3.07743 7.65594C4.1333 7.63497 5.18888 7.63784 6.24332 7.65479C6.67302 7.66139 6.9571 7.90727 7.12168 8.31227C7.69184 9.7154 8.39154 11.0505 9.26761 12.2884C9.50113 12.6179 9.73953 12.9468 10.0785 13.1797C10.453 13.4371 10.7385 13.3524 10.9152 12.9344C11.0281 12.6679 11.0769 12.3847 11.101 12.0997C11.1849 11.1243 11.1949 10.1488 11.0502 9.17713C10.9597 8.56934 10.6173 8.17669 10.0113 8.0618C9.70277 8.0032 9.74786 7.88888 9.8978 7.71281C10.158 7.40777 10.4033 7.21934 10.8905 7.21934L14.5444 7.21877C15.1206 7.33136 15.2487 7.58987 15.3271 8.1698L15.3305 12.2293C15.3245 12.4539 15.4429 13.1191 15.8461 13.2662C16.1687 13.3728 16.3827 13.114 16.5757 12.9089C17.4512 11.9797 18.0751 10.8821 18.6343 9.74671C18.8805 9.24606 19.0939 8.72732 19.3007 8.20829C19.4538 7.82425 19.6933 7.63526 20.1265 7.64215L23.644 7.64588C23.7474 7.64588 23.8534 7.64703 23.9559 7.66398C24.5482 7.76595 24.7105 8.02101 24.5275 8.5995C24.2391 9.50802 23.6776 10.2652 23.1284 11.024C22.5416 11.8355 21.9151 12.6202 21.3326 13.4357C20.7989 14.1836 20.842 14.5593 21.5049 15.207Z"/>
</svg>
