<svg width="64" height="64" viewBox="0 0 64 64" xmlns="http://www.w3.org/2000/svg">
<g>
<path d="M40.5972 50.8469H23.4027C21.4246 50.8469 20.7551 51.7908 20.5116 52.3388C20.2682 52.8869 20.116 54.0439 21.4855 55.3836L28.6676 62.5691C29.552 63.4522 30.7505 63.9483 32 63.9483C33.2495 63.9483 34.448 63.4522 35.3324 62.5691L42.6058 55.4444C44.0057 54.0439 43.8231 52.9173 43.5796 52.3997C43.3362 51.8821 42.6058 50.8469 40.5972 50.8469ZM40.5972 53.6481L33.476 60.8945C33.0575 61.269 32.5158 61.476 31.9543 61.476C31.3929 61.476 30.8512 61.269 30.4327 60.8945L23.2506 53.6785L23.0071 53.374H41.0233L40.5972 53.6481Z"/>
<path d="M62.6305 28.6508L55.4484 21.3131C55.1619 20.9829 54.8125 20.7132 54.4206 20.5198C54.0287 20.3264 53.6022 20.2131 53.166 20.1865C52.1008 20.1865 50.8835 20.9782 50.8835 23.2312V40.4644C50.8835 42.7174 52.1008 43.5091 53.166 43.5091C53.6022 43.4825 54.0287 43.3692 54.4206 43.1758C54.8125 42.9824 55.1619 42.7127 55.4484 42.3825L62.6305 35.197C63.5133 34.3122 64.009 33.1131 64.009 31.863C64.009 30.6129 63.5133 29.4138 62.6305 28.5291V28.6508ZM60.8654 33.4919L53.6833 40.6775L53.379 40.9515C53.3715 40.8197 53.3715 40.6875 53.379 40.5557V23.353C53.3715 23.2212 53.3715 23.0891 53.379 22.9572L53.6833 23.2008L60.8654 30.4472C61.2527 30.8594 61.4684 31.4039 61.4684 31.9696C61.4684 32.5353 61.2527 33.0798 60.8654 33.4919Z"/>
<path d="M23.4028 13.0923H40.6277C42.6058 13.0923 43.2753 12.1789 43.5188 11.6004C43.7622 11.0219 43.9144 9.89538 42.5449 8.5557L35.3324 1.33972C34.4367 0.478237 33.2425 -0.00292969 32 -0.00292969C30.7575 -0.00292969 29.5633 0.478237 28.6676 1.33972L21.4855 8.52526C21.0251 8.86697 20.6835 9.34459 20.5088 9.89082C20.3341 10.437 20.3351 11.0243 20.5116 11.57C20.7551 12.1789 21.3029 13.0923 23.4028 13.0923ZM23.4028 10.2912L30.4327 3.04476C30.8512 2.6703 31.3929 2.46327 31.9543 2.46327C32.5158 2.46327 33.0575 2.6703 33.476 3.04476L40.6581 10.2303L40.9016 10.5348H23.0071L23.4028 10.2912Z"/>
<path d="M10.834 20.3083C9.97084 20.3303 9.15094 20.6912 8.55158 21.3131L1.36946 28.6509C0.486729 29.5357 -0.00904846 30.7347 -0.00904846 31.9848C-0.00904846 33.235 0.486729 34.434 1.36946 35.3188L8.55158 42.6261C8.83539 42.9619 9.18361 43.2372 9.57565 43.436C9.9677 43.6347 10.3956 43.7528 10.834 43.7831C11.2054 43.7829 11.5701 43.6842 11.8908 43.497C12.2116 43.3097 12.477 43.0408 12.66 42.7175C12.99 42.1119 13.1479 41.4274 13.1165 40.7384V23.3531C13.1165 21.1 11.8992 20.3083 10.834 20.3083ZM10.621 40.5862C10.629 40.718 10.629 40.8502 10.621 40.982L10.3167 40.708L3.04326 33.492C2.65596 33.0798 2.44034 32.5354 2.44034 31.9696C2.44034 31.4039 2.65596 30.8595 3.04326 30.4473L10.3167 23.2313L10.621 22.9877C10.6289 23.1195 10.6289 23.2517 10.621 23.3835V40.5862Z"/>
<path d="M32.0152 18.6338C29.3776 18.6278 26.7975 19.4048 24.6014 20.8665C22.4054 22.3282 20.6922 24.4089 19.6786 26.8451C18.6651 29.2814 18.3968 31.9638 18.9077 34.5527C19.4185 37.1416 20.6856 39.5207 22.5486 41.3888C24.4115 43.2569 26.7866 44.53 29.3731 45.047C31.9596 45.5641 34.6413 45.3018 37.0787 44.2933C39.5161 43.2849 41.5997 41.5756 43.0657 39.3819C44.5317 37.1881 45.3143 34.6086 45.3143 31.9697C45.3143 28.4381 43.9141 25.0506 41.4209 22.5506C38.9277 20.0505 35.5451 18.6419 32.0152 18.6338ZM32.0152 42.8089C29.8724 42.8089 27.7778 42.1732 25.9961 40.9822C24.2145 39.7911 22.8258 38.0983 22.0058 36.1177C21.1858 34.1371 20.9713 31.9577 21.3893 29.8551C21.8074 27.7525 22.8392 25.8211 24.3544 24.3052C25.8695 22.7893 27.8 21.757 29.9016 21.3388C32.0032 20.9205 34.1815 21.1352 36.1612 21.9556C38.1409 22.776 39.8329 24.1653 41.0234 25.9478C42.2138 27.7303 42.8492 29.8259 42.8492 31.9697C42.8492 34.8444 41.7078 37.6014 39.676 39.6342C37.6442 41.6669 34.8886 42.8089 32.0152 42.8089Z"/>
</g>
<defs>
<clipPath>
<rect width="64" height="64"/>
</clipPath>
</defs>
</svg>
