<svg width="61" height="64" viewBox="0 0 61 64" xmlns="http://www.w3.org/2000/svg">
<path d="M30.1261 13.8328C26.5025 13.8391 22.9711 14.9777 20.024 17.09C17.077 19.2024 14.8611 22.1831 13.6853 25.6169C12.5095 29.0507 12.4322 32.7664 13.4643 36.2462C14.4964 39.7261 16.5864 42.7967 19.4431 45.0301C19.5219 45.1457 19.6215 45.2455 19.7369 45.3244C20.4397 45.8394 21.0131 46.5113 21.4118 47.2869C21.8105 48.0624 22.0234 48.9203 22.0337 49.7926L24.838 63.1438C24.8926 63.3868 25.0281 63.604 25.2223 63.7596C25.4164 63.9152 25.6577 64 25.9063 64H34.3192C34.5678 64 34.8091 63.9152 35.0032 63.7596C35.1974 63.604 35.3329 63.3868 35.3875 63.1438L38.2452 50.0334C38.2524 49.1634 38.4613 48.307 38.8552 47.5316C39.2492 46.7562 39.8175 46.0831 40.5153 45.5652C40.6091 45.4999 40.6905 45.4183 40.7557 45.3244C43.6341 43.0972 45.744 40.023 46.7896 36.5332C47.8351 33.0435 47.7637 29.3133 46.5853 25.8663C45.407 22.4193 43.1808 19.4285 40.2193 17.3135C37.2579 15.1985 33.7097 14.0655 30.0727 14.0736L30.1261 13.8328ZM33.4646 61.806H26.7076L26.4672 60.7358H33.5981L33.4646 61.806ZM34.1857 58.5418H26.1734L25.933 57.4448H34.5062L34.1857 58.5418ZM34.9068 55.2508H25.3722L24.4107 50.8361H35.8415L34.9068 55.2508ZM39.3135 43.505C39.219 43.5694 39.1374 43.6511 39.0731 43.7458C37.5463 44.9884 36.5292 46.7502 36.2154 48.6956H31.2211V33.3913C31.2211 32.8094 31.4519 32.2514 31.8626 31.8399C32.2733 31.4285 32.8303 31.1973 33.4111 31.1973C33.7016 31.1973 33.9801 31.0817 34.1854 30.876C34.3908 30.6703 34.5062 30.3913 34.5062 30.1003C34.5062 29.8094 34.3908 29.5304 34.1854 29.3246C33.9801 29.1189 33.7016 29.0033 33.4111 29.0033C32.784 29.008 32.1654 29.1493 31.5982 29.4172C31.031 29.6852 30.5287 30.0735 30.1261 30.5552C30.1261 30.5552 30.1261 30.3411 29.9392 30.2609C29.5381 29.8531 29.0599 29.5295 28.5325 29.309C28.0052 29.0884 27.4392 28.9754 26.8678 28.9766C26.5774 28.9766 26.2989 29.0922 26.0935 29.2979C25.8882 29.5036 25.7728 29.7826 25.7728 30.0736C25.7728 30.3645 25.8882 30.6435 26.0935 30.8493C26.2989 31.055 26.5774 31.1706 26.8678 31.1706C27.444 31.1776 27.9942 31.4118 28.3991 31.8225C28.8041 32.2332 29.0312 32.7873 29.0311 33.3645V48.6956H24.0368C23.7231 46.7502 22.7059 44.9884 21.1791 43.7458L20.9387 43.505C18.3724 41.5785 16.4763 38.8918 15.5191 35.8256C14.5619 32.7593 14.5922 29.4691 15.6056 26.421C16.619 23.373 18.5643 20.7217 21.1656 18.843C23.767 16.9642 26.8925 15.9532 30.0994 15.9532C33.3063 15.9532 36.4319 16.9642 39.0332 18.843C41.6346 20.7217 43.5798 23.373 44.5932 26.421C45.6067 29.4691 45.6369 32.7593 44.6797 35.8256C43.7225 38.8918 41.8264 41.5785 39.2601 43.505H39.3135Z"/>
<path d="M30.5 9.55184C30.6438 9.55184 30.7862 9.52347 30.919 9.46834C31.0519 9.41321 31.1726 9.3324 31.2743 9.23054C31.376 9.12867 31.4566 9.00774 31.5117 8.87465C31.5667 8.74156 31.595 8.59891 31.595 8.45485V1.09699C31.595 0.80605 31.4796 0.527026 31.2743 0.321301C31.0689 0.115575 30.7904 0 30.5 0C30.2096 0 29.9311 0.115575 29.7257 0.321301C29.5204 0.527026 29.405 0.80605 29.405 1.09699V8.45485C29.405 8.74579 29.5204 9.02481 29.7257 9.23054C29.9311 9.43626 30.2096 9.55184 30.5 9.55184Z"/>
<path d="M14.1283 15.7056C14.2278 15.8123 14.3475 15.898 14.4805 15.9578C14.6135 16.0175 14.7571 16.05 14.9028 16.0534C15.0468 16.055 15.1897 16.0274 15.3228 15.9722C15.4559 15.917 15.5765 15.8354 15.6773 15.7324C15.7791 15.6305 15.8598 15.5095 15.9149 15.3764C15.9699 15.2433 15.9983 15.1006 15.9983 14.9564C15.9983 14.8123 15.9699 14.6696 15.9149 14.5365C15.8598 14.4034 15.7791 14.2824 15.6773 14.1805L10.4961 8.96313C10.3944 8.8612 10.2736 8.78034 10.1407 8.72517C10.0078 8.67 9.86539 8.6416 9.72154 8.6416C9.57768 8.6416 9.43524 8.67 9.30235 8.72517C9.16945 8.78034 9.04871 8.8612 8.94702 8.96313C8.84527 9.06501 8.76455 9.18597 8.70948 9.3191C8.65441 9.45224 8.62607 9.59494 8.62607 9.73905C8.62607 9.88317 8.65441 10.0259 8.70948 10.159C8.76455 10.2921 8.84527 10.4131 8.94702 10.515L14.1283 15.7056Z"/>
<path d="M9.5613 30.5551C9.56486 30.4088 9.53917 30.2633 9.48573 30.1271C9.4323 29.9909 9.35221 29.8668 9.25017 29.7621C9.14814 29.6574 9.02621 29.5742 8.89159 29.5174C8.75697 29.4606 8.61236 29.4314 8.46629 29.4314H1.09501C0.804594 29.4314 0.526075 29.547 0.320721 29.7527C0.115367 29.9584 0 30.2374 0 30.5284C0 30.8193 0.115367 31.0984 0.320721 31.3041C0.526075 31.5098 0.804594 31.6254 1.09501 31.6254H8.46629C8.75213 31.6255 9.02668 31.5136 9.23128 31.3136C9.43589 31.1136 9.55432 30.8414 9.5613 30.5551Z"/>
<path d="M14.155 45.485L8.81346 50.7024C8.71175 50.8043 8.63107 50.9252 8.57602 51.0584C8.52098 51.1915 8.49265 51.3342 8.49265 51.4783C8.49265 51.6224 8.52098 51.7651 8.57602 51.8982C8.63107 52.0313 8.71175 52.1523 8.81346 52.2542C8.91517 52.3561 9.03592 52.4369 9.16881 52.4921C9.30171 52.5472 9.44414 52.5756 9.58798 52.5756C9.73182 52.5756 9.87425 52.5472 10.0071 52.4921C10.14 52.4369 10.2608 52.3561 10.3625 52.2542L15.5705 47.0368C15.6917 46.8343 15.7444 46.598 15.7208 46.363C15.6973 46.1281 15.5987 45.907 15.4397 45.7327C15.2807 45.5584 15.0698 45.4401 14.8383 45.3955C14.6069 45.3509 14.3672 45.3822 14.155 45.485Z"/>
<path d="M46.8717 46.3411C46.77 46.2391 46.6493 46.1583 46.5164 46.1031C46.3835 46.0479 46.241 46.0195 46.0972 46.0195C45.9533 46.0195 45.8109 46.0479 45.678 46.1031C45.5451 46.1583 45.4243 46.2391 45.3227 46.3411C45.2209 46.4429 45.1402 46.5639 45.0851 46.697C45.0301 46.8302 45.0017 46.9729 45.0017 47.117C45.0017 47.2611 45.0301 47.4038 45.0851 47.5369C45.1402 47.6701 45.2209 47.791 45.3227 47.8929L50.5306 53.2441C50.736 53.4499 51.0146 53.5655 51.3051 53.5655C51.5956 53.5655 51.8742 53.4499 52.0797 53.2441C52.2851 53.0383 52.4005 52.7592 52.4005 52.4682C52.4005 52.1771 52.2851 51.898 52.0797 51.6922L46.8717 46.3411Z"/>
<path d="M59.905 29.4314H52.5604C52.27 29.4314 51.9915 29.547 51.7861 29.7527C51.5808 29.9584 51.4654 30.2374 51.4654 30.5284C51.4654 30.8193 51.5808 31.0984 51.7861 31.3041C51.9915 31.5098 52.27 31.6254 52.5604 31.6254H59.905C60.1954 31.6254 60.4739 31.5098 60.6793 31.3041C60.8846 31.0984 61 30.8193 61 30.5284C61 30.2374 60.8846 29.9584 60.6793 29.7527C60.4739 29.547 60.1954 29.4314 59.905 29.4314Z"/>
<path d="M46.0972 16.0534C46.241 16.0535 46.3834 16.0252 46.5163 15.9701C46.6492 15.915 46.77 15.8342 46.8717 15.7324L52.0797 10.4882C52.2851 10.2824 52.4005 10.0033 52.4005 9.71231C52.4005 9.42128 52.2851 9.14217 52.0797 8.93639C51.8743 8.7306 51.5957 8.61499 51.3052 8.61499C51.0147 8.61499 50.7361 8.7306 50.5306 8.93639L45.4028 14.1538C45.301 14.2557 45.2203 14.3766 45.1653 14.5097C45.1102 14.6429 45.0818 14.7856 45.0818 14.9297C45.0818 15.0738 45.1102 15.2165 45.1653 15.3496C45.2203 15.4828 45.301 15.6037 45.4028 15.7056C45.5825 15.9047 45.8304 16.0288 46.0972 16.0534Z"/>
</svg>
