<svg width="65" height="65" viewBox="0 0 65 65" xmlns="http://www.w3.org/2000/svg">
<g>
<path d="M61.8695 0H3.13047C2.41629 0.0163072 1.72917 0.276387 1.18319 0.737059C0.637204 1.19773 0.2652 1.83128 0.128938 2.53253C-0.00732348 3.23378 0.100354 3.96055 0.434093 4.59216C0.767832 5.22377 1.30756 5.72224 1.96366 6.00482V48.1808C1.96366 48.4903 2.08659 48.7871 2.30541 49.0059C2.52423 49.2247 2.82102 49.3476 3.13047 49.3476H31.3047V55.2102L12.4934 62.7517C12.2434 62.853 12.0361 63.0378 11.907 63.2747C11.7778 63.5115 11.7348 63.7858 11.7851 64.0509C11.8354 64.3159 11.976 64.5554 12.183 64.7284C12.39 64.9015 12.6505 64.9974 12.9203 65H13.3472L32.5 57.3446L51.6528 65H52.0797C52.3495 64.9974 52.61 64.9015 52.817 64.7284C53.024 64.5554 53.1646 64.3159 53.2149 64.0509C53.2652 63.7858 53.2222 63.5115 53.093 63.2747C52.9639 63.0378 52.7566 62.853 52.5066 62.7517L33.6668 55.2102V49.3476H61.8695C62.179 49.3476 62.4758 49.2247 62.6946 49.0059C62.9134 48.7871 63.0363 48.4903 63.0363 48.1808V6.00482C63.6924 5.72224 64.2322 5.22377 64.5659 4.59216C64.8997 3.96055 65.0073 3.23378 64.8711 2.53253C64.7348 1.83128 64.3628 1.19773 63.8168 0.737059C63.2708 0.276387 62.5837 0.0163072 61.8695 0V0ZM3.13047 2.33363H61.8695C62.0809 2.33363 62.2835 2.41758 62.433 2.56702C62.5824 2.71645 62.6664 2.91914 62.6664 3.13047C62.6664 3.34181 62.5824 3.54449 62.433 3.69393C62.2835 3.84337 62.0809 3.92732 61.8695 3.92732H3.13047C2.91914 3.92732 2.71645 3.84337 2.56702 3.69393C2.41758 3.54449 2.33363 3.34181 2.33363 3.13047C2.33363 2.91914 2.41758 2.71645 2.56702 2.56702C2.71645 2.41758 2.91914 2.33363 3.13047 2.33363ZM60.7312 47.014H4.29729V6.26095H60.7027L60.7312 47.014Z"/>
<path d="M32.5 39.5577C35.0554 39.5577 37.5534 38.7999 39.6781 37.3802C41.8029 35.9605 43.4589 33.9426 44.4368 31.5818C45.4147 29.2209 45.6706 26.623 45.1721 24.1167C44.6735 21.6104 43.443 19.3083 41.636 17.5013C39.8291 15.6944 37.5269 14.4638 35.0206 13.9653C32.5143 13.4668 29.9165 13.7226 27.5556 14.7005C25.1947 15.6785 23.1768 17.3345 21.7571 19.4592C20.3374 21.584 19.5797 24.082 19.5797 26.6374C19.5797 28.3341 19.9139 30.0142 20.5632 31.5818C21.2125 33.1493 22.1642 34.5736 23.364 35.7734C25.787 38.1964 29.0733 39.5577 32.5 39.5577ZM42.9729 25.4705H33.6668V16.1645C36.0444 16.428 38.2613 17.4931 39.9528 19.1846C41.6443 20.876 42.7094 23.093 42.9729 25.4705ZM31.3047 16.1645V27.8042H42.9729C42.7568 29.7818 41.9864 31.6581 40.7505 33.217C39.5145 34.7758 37.8633 35.9538 35.9871 36.6151C34.1109 37.2765 32.086 37.3943 30.1458 36.9551C28.2055 36.5158 26.4288 35.5373 25.0204 34.1324C23.612 32.7274 22.6292 30.9531 22.1852 29.0139C21.7412 27.0747 21.8541 25.0495 22.5108 23.1717C23.1676 21.2939 24.3415 19.6398 25.8974 18.4001C27.4532 17.1604 29.3277 16.3854 31.3047 16.1645Z"/>
</g>
<defs>
<clipPath>
<rect width="65" height="65"/>
</clipPath>
</defs>
</svg>
